<svg id="Layer_1" data-name="Layer 1" xmlns="http://www.w3.org/2000/svg" viewBox="0 0 520.24 331.33"><defs><style>.cls-1{fill:#815e36;}.cls-2{fill:#f8b400;}.cls-3{fill:#008a30;}.cls-4{fill:#004915;}.cls-5{fill:#04aa37;}</style></defs><title>snooker_table</title><rect class="cls-1" x="94.55" y="-94.19" width="331.33" height="520.24" rx="45" transform="translate(426.06 -94.55) rotate(90)"/><path class="cls-2" d="M.1,274.46v37.71A19.44,19.44,0,0,0,19.53,331.6H57.24V274.46Z" transform="translate(-0.1 -0.27)"/><rect class="cls-2" x="228.89" y="274.19" width="62.47" height="57.14"/><path class="cls-2" d="M463.2,331.6h37.72a19.44,19.44,0,0,0,19.42-19.43V274.46H463.2Z" transform="translate(-0.1 -0.27)"/><path class="cls-2" d="M57.24.27H19.53A19.44,19.44,0,0,0,.1,19.7V57.41H57.24Z" transform="translate(-0.1 -0.27)"/><rect class="cls-2" x="228.89" width="62.47" height="57.14"/><path class="cls-2" d="M520.34,57.41V19.7A19.44,19.44,0,0,0,500.92.27H463.2V57.41Z" transform="translate(-0.1 -0.27)"/><rect class="cls-3" x="117" y="-71.74" width="286.43" height="475.35" transform="translate(426.06 -94.55) rotate(90)"/><circle class="cls-4" cx="26" cy="26.17" r="13.67" transform="translate(-4.08 47.4) rotate(-80.82)"/><circle class="cls-4" cx="494.44" cy="26.17" r="13.67" transform="translate(389.31 509.77) rotate(-80.78)"/><circle class="cls-4" cx="494.34" cy="305.43" r="13.67"/><circle class="cls-4" cx="25.9" cy="305.43" r="13.67"/><circle class="cls-4" cx="260.12" cy="305.43" r="13.67"/><circle class="cls-4" cx="260.22" cy="26.17" r="13.67" transform="translate(202.45 281) rotate(-83.01)"/><polygon class="cls-5" points="483.55 276.81 497.8 291.05 497.8 40.28 483.55 54.52 483.55 276.81"/><polygon class="cls-5" points="36.7 54.52 22.45 40.28 22.45 291.05 36.7 276.81 36.7 54.52"/><polygon class="cls-5" points="239.85 36.7 246.32 22.45 40.28 22.45 54.52 36.7 239.85 36.7"/><polygon class="cls-5" points="465.72 36.7 479.96 22.45 273.93 22.45 280.39 36.7 465.72 36.7"/><polygon class="cls-5" points="54.53 294.64 40.28 308.88 246.32 308.88 239.85 294.64 54.53 294.64"/><polygon class="cls-5" points="280.39 294.64 273.93 308.88 479.96 308.88 465.72 294.64 280.39 294.64"/></svg>